<?xml version="1.0" standalone="no"?>
<!DOCTYPE svg PUBLIC "-//W3C//DTD SVG 20010904//EN"
 "http://www.w3.org/TR/2001/REC-SVG-20010904/DTD/svg10.dtd">
<svg version="1.0" xmlns="http://www.w3.org/2000/svg"
 width="453.000000pt" height="453.000000pt" viewBox="0 0 453.000000 453.000000"
 preserveAspectRatio="xMidYMid meet">
<metadata>
Created by potrace 1.13, written by Peter Selinger 2001-2015
</metadata>
<g transform="translate(0.000000,453.000000) scale(0.100000,-0.100000)"
fill="#000000" stroke="none">
<path d="M0 2265 l0 -2265 2265 0 2265 0 0 2265 0 2265 -2265 0 -2265 0 0
-2265z m1726 1050 c8 -7 8 -18 1 -38 -7 -22 -6 -31 4 -37 8 -6 10 -13 3 -22
-11 -15 -12 -38 -1 -54 4 -7 7 -54 7 -105 0 -52 0 -106 0 -121 0 -16 -3 -28
-7 -28 -5 0 -8 -12 -9 -27 -1 -53 -11 -124 -18 -130 -3 -3 -6 -19 -6 -35 0
-34 -11 -57 -46 -95 -42 -45 -95 -140 -94 -170 1 -149 50 -234 85 -149 8 19
18 37 23 40 7 4 52 -73 52 -88 0 -2 -11 -7 -25 -10 -30 -8 -48 -46 -37 -77 5
-11 4 -54 -1 -95 -6 -58 -5 -81 7 -106 8 -18 19 -57 25 -86 13 -65 27 -92 46
-92 8 0 15 -6 15 -13 0 -7 11 -23 25 -35 14 -12 25 -28 25 -35 0 -8 15 -30 34
-49 29 -30 36 -33 52 -21 50 37 58 -4 14 -75 -40 -66 -51 -130 -40 -235 9 -89
39 -167 64 -167 21 0 52 -68 59 -128 5 -40 3 -51 -6 -45 -156 98 -263 201
-340 332 -35 58 -47 89 -47 118 0 22 -9 74 -20 116 -11 42 -27 107 -35 145 -7
37 -18 80 -24 95 -11 27 -11 27 -36 11 -25 -17 -27 -16 -61 17 -19 18 -43 56
-53 83 -11 28 -29 69 -40 91 -12 21 -21 53 -21 70 0 16 -10 61 -22 98 -20 61
-21 74 -10 124 11 54 10 58 -10 80 -18 19 -20 28 -12 41 19 29 41 25 64 -12
12 -20 29 -36 38 -36 15 0 15 -2 2 -11 -11 -8 -9 -9 10 -3 14 3 27 8 30 11 2
2 -4 36 -14 76 -11 40 -18 95 -17 123 1 29 -5 63 -14 80 -8 16 -15 35 -15 42
0 7 -7 15 -15 18 -8 4 -15 12 -15 19 0 6 -9 22 -20 35 l-20 23 0 -26 c0 -32
-20 -47 -21 -15 -1 40 -9 74 -29 134 -21 61 -26 139 -10 149 12 8 13 45 1 45
-5 0 -5 17 0 41 5 22 9 46 8 52 -3 24 3 52 8 40 2 -7 19 -13 37 -13 l32 0 2
-62 c2 -36 9 -73 18 -86 l16 -24 22 21 c12 11 37 50 55 86 34 65 48 83 36 44
-7 -20 -4 -19 29 7 20 16 59 55 86 86 50 57 83 75 139 73 14 0 31 -4 37 -10z
m449 -1079 c4 -32 13 -77 22 -100 17 -49 12 -101 -21 -201 -18 -54 -21 -76
-13 -98 13 -39 5 -42 -28 -11 -26 24 -30 25 -40 10 -32 -44 -70 11 -61 87 6
44 3 62 -18 107 -32 69 -34 114 -4 138 57 45 111 100 125 126 19 37 28 24 38
-58z m13 -505 c2 -13 -4 -43 -12 -66 -9 -23 -14 -49 -11 -57 4 -10 -16 -25
-75 -52 -45 -21 -84 -35 -87 -32 -3 2 1 27 8 55 8 34 20 53 37 62 13 7 30 26
38 41 8 15 18 28 23 28 4 0 13 12 19 26 16 33 55 30 60 -5z"/>
<path d="M1362 2193 c-50 -10 -61 -109 -19 -187 17 -32 26 -42 31 -31 3 8 17
15 32 15 23 0 25 -3 20 -25 -4 -16 -1 -34 9 -48 8 -12 15 -29 15 -39 0 -11 8
-18 20 -18 22 0 24 8 11 42 -29 74 -45 108 -52 108 -16 0 -22 72 -9 110 7 20
9 47 5 59 -6 20 -16 23 -63 14z"/>
</g>
</svg>
